<svg width="35" height="35" viewBox="0 0 35 35" fill="none" xmlns="http://www.w3.org/2000/svg">
<path d="M18.6674 1.24947C18.6673 1.0693 18.6309 0.891276 18.5606 0.727593C18.4903 0.563911 18.3879 0.41844 18.2602 0.301149C18.1326 0.183857 17.9827 0.0975173 17.821 0.0480452C17.6593 -0.00142691 17.4896 -0.0128619 17.3233 0.0145238L0.989372 2.68941C0.713987 2.73478 0.46285 2.88423 0.281384 3.11074C0.0999184 3.33725 0.000106017 3.62585 0 3.92435V31.0732C0.000106017 31.3717 0.0999184 31.6603 0.281384 31.8868C0.46285 32.1133 0.713987 32.2627 0.989372 32.3081L17.3233 34.9855C17.4896 35.0129 17.6593 35.0014 17.821 34.952C17.9827 34.9025 18.1326 34.8161 18.2602 34.6989C18.3879 34.5816 18.4903 34.4361 18.5606 34.2724C18.6309 34.1087 18.6673 33.9307 18.6674 33.7505V17.4988H30.7359L28.4094 19.6837C28.1905 19.9057 28.0602 20.21 28.0461 20.5327C28.0319 20.8554 28.1349 21.1714 28.3335 21.4145C28.532 21.6576 28.8107 21.8089 29.1111 21.8367C29.4115 21.8645 29.7103 21.7666 29.9448 21.5636L34.6023 17.1888C34.7273 17.0714 34.8274 16.9269 34.8959 16.7648C34.9645 16.6027 35 16.4268 35 16.2488C35 16.0708 34.9645 15.8949 34.8959 15.7328C34.8274 15.5707 34.7273 15.4262 34.6023 15.3088L29.9448 10.934C29.7121 10.7159 29.4081 10.6057 29.0996 10.6278C28.7911 10.6498 28.5034 10.8022 28.2998 11.0515C28.0962 11.3008 27.9933 11.6266 28.0139 11.9571C28.0345 12.2876 28.1767 12.5958 28.4094 12.814L30.7359 14.9989H18.6674V1.24947ZM12.8338 20.6236C12.3697 20.6236 11.9245 20.4261 11.5963 20.0745C11.2681 19.7228 11.0838 19.246 11.0838 18.7487C11.0838 18.2514 11.2681 17.7745 11.5963 17.4229C11.9245 17.0713 12.3697 16.8738 12.8338 16.8738C13.298 16.8738 13.7431 17.0713 14.0713 17.4229C14.3995 17.7745 14.5839 18.2514 14.5839 18.7487C14.5839 19.246 14.3995 19.7228 14.0713 20.0745C13.7431 20.4261 13.298 20.6236 12.8338 20.6236ZM22.1675 32.4981H21.0008V19.9986H23.3342V31.2481C23.3342 31.5796 23.2113 31.8976 22.9925 32.132C22.7737 32.3664 22.477 32.4981 22.1675 32.4981ZM21.0008 12.499V2.49941H22.1675C22.477 2.49941 22.7737 2.6311 22.9925 2.86551C23.2113 3.09992 23.3342 3.41785 23.3342 3.74936V12.499H21.0008Z" fill="#1CABE3" fill-opacity="0.75"/>
</svg>
