<svg width="28" height="19" viewBox="0 0 28 19" fill="none" xmlns="http://www.w3.org/2000/svg">
<path d="M18.75 7.93651C20.825 7.93651 22.4875 6.16402 22.4875 3.96825C22.4875 1.77249 20.825 0 18.75 0C16.675 0 15 1.77249 15 3.96825C15 6.16402 16.675 7.93651 18.75 7.93651ZM8.75 7.93651C10.825 7.93651 12.4875 6.16402 12.4875 3.96825C12.4875 1.77249 10.825 0 8.75 0C6.675 0 5 1.77249 5 3.96825C5 6.16402 6.675 7.93651 8.75 7.93651ZM8.75 10.582C5.8375 10.582 0 12.1296 0 15.2116V18.5185H17.5V15.2116C17.5 12.1296 11.6625 10.582 8.75 10.582ZM18.75 10.582C18.3875 10.582 17.975 10.6085 17.5375 10.6481C18.9875 11.7593 20 13.254 20 15.2116V18.5185H27.5V15.2116C27.5 12.1296 21.6625 10.582 18.75 10.582Z" fill="#1CABE3"/>
</svg>
