<svg width="25" height="20" viewBox="0 0 25 20" fill="none" xmlns="http://www.w3.org/2000/svg">
<path d="M14.5827 13.5711C14.5827 14.1394 14.3632 14.6845 13.9725 15.0864C13.5818 15.4883 13.0518 15.714 12.4993 15.714C11.9468 15.714 11.4169 15.4883 11.0262 15.0864C10.6355 14.6845 10.416 14.1394 10.416 13.5711C10.416 13.0027 10.6355 12.4576 11.0262 12.0558C11.4169 11.6539 11.9468 11.4281 12.4993 11.4281C13.0518 11.4281 13.5818 11.6539 13.9725 12.0558C14.3632 12.4576 14.5827 13.0027 14.5827 13.5711ZM10.7451 3.29906L7.78956 7.20785C7.6909 7.33839 7.55127 7.42967 7.3945 7.46615C7.23772 7.50262 7.07349 7.48202 6.92983 7.40787L3.97842 5.88921C4.15778 5.48523 4.21069 5.03391 4.12984 4.59766C4.04898 4.1614 3.83836 3.76177 3.52709 3.454C3.21581 3.14623 2.81927 2.94555 2.39229 2.87969C1.96531 2.81383 1.52899 2.88605 1.14365 3.08637C0.75831 3.28669 0.442994 3.60521 0.2413 3.99788C0.0396056 4.39055 -0.0385019 4.83798 0.0177769 5.27831C0.0740558 5.71863 0.261941 6.13009 0.555453 6.4558C0.848965 6.7815 1.2336 7.00536 1.65618 7.09642L4.0062 18.5828C4.08848 18.984 4.30252 19.3439 4.61235 19.602C4.92218 19.8601 5.30892 20.0006 5.7076 20H19.2938C19.6922 20.0003 20.0786 19.8596 20.3882 19.6016C20.6977 19.3435 20.9116 18.9838 20.9938 18.5828L23.3438 7.09642C23.7664 7.00536 24.151 6.7815 24.4445 6.4558C24.7381 6.13009 24.9259 5.71863 24.9822 5.27831C25.0385 4.83798 24.9604 4.39055 24.7587 3.99788C24.557 3.60521 24.2417 3.28669 23.8563 3.08637C23.471 2.88605 23.0347 2.81383 22.6077 2.87969C22.1807 2.94555 21.7842 3.14623 21.4729 3.454C21.1616 3.76177 20.951 4.1614 20.8702 4.59766C20.7893 5.03391 20.8422 5.48523 21.0216 5.88921L18.0688 7.40787C17.9251 7.48202 17.7609 7.50262 17.6041 7.46615C17.4473 7.42967 17.3077 7.33839 17.2091 7.20785L14.2535 3.29906C14.4552 2.97526 14.5684 2.60158 14.5814 2.21724C14.5944 1.8329 14.5065 1.45206 14.3271 1.11466C14.1477 0.777256 13.8834 0.495729 13.5618 0.299608C13.2402 0.103488 12.8732 0 12.4993 0C12.1254 0 11.7585 0.103488 11.4369 0.299608C11.1153 0.495729 10.8509 0.777256 10.6715 1.11466C10.4921 1.45206 10.4043 1.8329 10.4172 2.21724C10.4302 2.60158 10.5434 2.97526 10.7451 3.29906ZM12.4993 3.30335L16.1132 8.08362C16.409 8.47454 16.8274 8.74796 17.2971 8.85736C17.7669 8.96675 18.2589 8.90537 18.6896 8.68365L21.9396 7.01213L19.6341 18.287C19.6175 18.3672 19.5746 18.439 19.5127 18.4905C19.4507 18.542 19.3735 18.5701 19.2938 18.5699H5.70621C5.62655 18.5701 5.54926 18.542 5.48731 18.4905C5.42535 18.439 5.3825 18.3672 5.36593 18.287L3.05897 7.01356L6.30899 8.68508C6.73968 8.9068 7.23174 8.96818 7.70147 8.85879C8.17119 8.74939 8.58956 8.47597 8.88539 8.08505L12.4993 3.30335Z" fill="#1CABE3"/>
</svg>
