<svg width="57" height="55" viewBox="0 0 57 55" fill="none" xmlns="http://www.w3.org/2000/svg">
<rect width="57" height="55" rx="27.5" fill="#D9D9D9" fill-opacity="0.45"/>
<path d="M26.25 36.3H30.75C30.75 36.8835 30.5129 37.4431 30.091 37.8556C29.669 38.2682 29.0967 38.5 28.5 38.5C27.9033 38.5 27.331 38.2682 26.909 37.8556C26.4871 37.4431 26.25 36.8835 26.25 36.3ZM35.25 31.9V25.3C35.2484 23.7414 34.6827 22.2337 33.6532 21.0439C32.6237 19.854 31.1967 19.0588 29.625 18.799V17.6C29.625 17.3083 29.5065 17.0285 29.2955 16.8222C29.0845 16.6159 28.7984 16.5 28.5 16.5C28.2016 16.5 27.9155 16.6159 27.7045 16.8222C27.4935 17.0285 27.375 17.3083 27.375 17.6V18.799C25.8033 19.0588 24.3763 19.854 23.3468 21.0439C22.3173 22.2337 21.7516 23.7414 21.75 25.3V31.9L19.5 34.1H37.5L35.25 31.9Z" fill="#1CABE3" stroke="#1CABE3"/>
</svg>
